Coordinates
version=1
nRows=8
nColumns=36
inDegrees=yes

Units are S.I. units (second, meters, Newtons, ...)
If the header above contains a line with 'inDegrees', this indicates whether rotational values are in degrees (yes) or radians (no).

endheader
time	pelvis_tilt	pelvis_list	pelvis_rotation	pelvis_tx	pelvis_ty	pelvis_tz	hip_flexion_r	hip_adduction_r	hip_rotation_r	knee_angle_r	knee_angle_r_beta	ankle_angle_r	subtalar_angle_r	mtp_angle_r	hip_flexion_l	hip_adduction_l	hip_rotation_l	knee_angle_l	knee_angle_l_beta	ankle_angle_l	subtalar_angle_l	mtp_angle_l	lumbar_extension	lumbar_bending	lumbar_rotation	arm_flex_r	arm_add_r	arm_rot_r	elbow_flex_r	pro_sup_r	arm_flex_l	arm_add_l	arm_rot_l	elbow_flex_l	pro_sup_l
      2.23333330	    -28.23674448	     -1.32400803	      5.48955980	      0.37260033	      0.72252957	     -0.14940984	     83.71152777	    -17.43155197	     -0.13834922	     87.95631083	      1.53512722	     35.92899111	     -4.51177986	     -7.49985092	     84.06128274	    -12.00534890	     -0.61274932	     84.64047328	      1.47725494	     31.05322696	      2.54062724	     -7.49985092	    -31.48949862	     -2.17878397	     -3.62956604	     82.34094106	      5.54486392	     66.42870066	    119.09389911	     89.26147758	     80.71490781	      9.91575187	     74.71577836	    124.10194360	     89.51094146
      2.25000000	    -27.51853402	     -1.44436236	      5.92266583	      0.37753172	      0.73145678	     -0.15136754	     81.70875365	    -17.46875624	     -0.81941615	     86.54788255	      1.51054551	     35.63011239	     -5.21890063	     -7.49985296	     82.57768683	    -11.79980321	     -0.76403389	     83.11345663	      1.45060347	     30.22768834	      2.33131143	     -7.49985296	    -31.26371459	     -2.20998984	     -3.69462176	     81.90862215	      5.24654179	     65.47002715	    119.41199856	     89.17192331	     80.88994206	     10.32319831	     74.58044381	    124.03291861	     89.52589607
      2.26666670	    -26.78809819	     -1.35480479	      6.14021801	      0.37836634	      0.74766855	     -0.15136935	     79.49665431	    -17.25348449	     -1.27981297	     84.56100472	      1.47586795	     34.90773990	     -6.00504806	     -7.49984664	     80.64822576	    -11.58530373	     -1.18846202	     81.15473296	      1.41641729	     29.30372416	      2.01516904	     -7.49984664	    -31.34719610	     -2.49107758	     -3.66080358	     81.59665229	      4.84870647	     64.94007578	    119.93169870	     87.47819922	     80.55738957	     10.61654778	     75.19626221	    124.17949297	     87.92012593
      2.28333330	    -26.29640769	     -1.29424761	      6.12014872	      0.38402717	      0.75823729	     -0.15222929	     77.47770623	    -17.01906040	     -1.72286269	     82.59699461	      1.44158951	     34.43247715	     -6.13258512	     -7.49984741	     78.55038656	    -11.60587672	     -1.60307640	     79.04216998	      1.37954611	     28.70857032	      2.08430712	     -7.49984741	    -30.65940450	     -2.64011375	     -3.76518807	     80.62519417	      4.88083173	     65.32890541	    120.04438799	     87.54426637	     79.76360068	     10.47390220	     75.60747538	    124.20132920	     87.97391569
      2.30000000	    -25.55708510	     -1.16964234	      6.14204921	      0.38761788	      0.76600532	     -0.15487648	     75.29105048	    -16.99825897	     -2.04303109	     80.81339456	      1.41045981	     33.81652271	     -6.27638463	     -7.49986122	     76.37146177	    -11.43235869	     -2.03085409	     77.42901417	      1.35139123	     28.64201044	      1.96230651	     -7.49986122	    -30.12181824	     -2.52288861	     -3.71163467	     80.29066300	      4.80788107	     65.22101613	    120.36472812	     85.90723153	     78.86082225	     10.24189163	     76.10457551	    124.75691927	     86.33092700
      2.31666670	    -24.74310898	     -1.08968321	      5.99955699	      0.38440754	      0.77337675	     -0.15191222	     73.50013155	    -16.82389320	     -2.32575626	     79.31703457	      1.38434341	     33.20660595	     -6.29590478	     -7.49986247	     74.37978827	    -11.44907249	     -2.30589188	     75.90798063	      1.32484419	     28.35207561	      1.96179433	     -7.49986247	    -29.24736925	     -2.62064652	     -3.54961702	     79.46825783	      4.99885072	     65.76201070	    120.45140197	     86.12795679	     79.58541788	     10.26792269	     76.06447646	    124.44849153	     86.46556992
      2.33333330	    -23.76457237	     -1.01691341	      5.73281251	      0.39291655	      0.79295619	     -0.15493384	     70.75029815	    -16.49755854	     -2.76873196	     77.00018551	      1.34390676	     32.48814671	     -6.33560658	     -7.49988027	     71.52837715	    -11.40110893	     -2.69329670	     73.83601782	      1.28868162	     27.86282468	      1.97081700	     -7.49988027	    -28.97538453	     -2.57457076	     -2.90642480	     77.89300240	      4.94236807	     66.29470558	    120.87323665	     87.18168905	     79.40366219	     10.67937578	     75.74148680	    123.37339602	     86.44477457
      2.35000000	    -23.25374920	     -0.97305825	      5.54553194	      0.39017079	      0.79932070	     -0.15210765	     69.01200958	    -16.22543080	     -3.16145363	     75.26911145	      1.31369382	     31.89889467	     -6.49629661	     -7.49988119	     69.59413454	    -11.43296100	     -2.98838431	     71.98551080	      1.25638418	     27.47162486	      2.13830025	     -7.49988119	    -27.98986222	     -2.74163904	     -2.61937371	     77.21492891	      5.14907535	     66.40535321	    120.79074956	     87.31219019	     78.45086823	     10.43427153	     75.57905031	    123.33469829	     86.46483664
